<?xml version="1.0" encoding="UTF-8"?>
<svg id="Layer_1" data-name="Layer 1" xmlns="http://www.w3.org/2000/svg" viewBox="0 0 384 40.66">
  <defs>
    <style>
      .cls-1 {
        fill: #221e1f;
      }

      .cls-1, .cls-2, .cls-3, .cls-4, .cls-5, .cls-6 {
        stroke-width: 0px;
      }

      .cls-2 {
        fill: #bb8d0b;
      }

      .cls-3 {
        fill: #fff;
      }

      .cls-4 {
        fill: #ffc425;
      }

      .cls-5 {
        fill: #ee3124;
      }

      .cls-6 {
        fill: #0067b1;
      }
    </style>
  </defs>
  <path class="cls-1" d="M257.37,65.76c4.88-.68,9.96-2.99,12.61-8.43l9.13-18.97c3.39-6.85,3.13-10.96-10.68-10.96h-28.33l-7.19,14.84c-4.62-.26-8.95-.4-12.97-.42,2.51-8.85,5.92-17.32,9.07-24.79-12.69,7.23-24.99,16.9-37.08,26.66-2.13.36-5.04.86-8.49,1.51l8.51-17.81h-18.03l-10.62,22.18c-2.95.74-5.96,1.51-8.99,2.37l11.74-24.55h-18.13l-25.43,53.2c-4.22,0-5.58-4.58-3.99-7.85l21.58-45.35h-18.03l-20.98,43.94c-5.86,12.21,3.45,15.7,15.8,15.7h13.19l1.45-3.19c2.05,1.93,5.56,3.19,14.94,3.19h2.53c-3.69,4.76-7.15,9.56-10.64,14.65,16.88-10.24,33.67-19.73,53.66-28.33,4.2,5.68,10.04,11.98,17.61,18.33.88-7.25,1.95-22.46,4.62-29.21,3.49-1.81,7.33-3.55,11.42-5.22l-14.43,29.81h18.17l8.81-18.09h3.21c4.04,0,3.59,2.17,2.51,4.54l-6.66,13.55h18.27l5.66-11.68c2.61-5.68.38-8.51-3.83-9.62h0ZM148.46,80.6c-4.22,0-5.68-4.58-4.08-7.85l5.84-12.19c2.73-.2,5.48-.4,8.13-.58,0,0-9.88,20.62-9.88,20.62ZM251.07,58.66c-1.12,2.23-3.33,3.65-6.24,3.65h-3.53l13.87-28.43h3.63c4.56,0,2.87,2.75,1.89,4.92l-9.62,19.87h0Z"/>
  <path class="cls-3" d="M193.35,66.87c-14.73,6.95-31.46,15.2-44.38,25.11,15.68-19.35,28.59-29.61,38.2-34.95-5.5,5.14-11.5,12.15-15.06,16.3,7.41-4.34,20.54-11.44,23.81-12.83,6.87,15.52,8.91,19.81,11.92,26.16-6.52-7.53-13.33-17.85-14.49-19.79ZM213.29,45.69c8.83-.22,20.01-.04,32.52.78-11.48,3.33-24.69,7.43-35.91,12.45-1.93,6.06-2.79,15.68-3.23,21.76-2.69-12.63-2.27-21.52-1.51-24.29,2.29-1.28,14.45-5.62,21.74-7.63-6.56.26-17.28,1.39-20.11,1.65,1.06-3.61,3.97-10.12,6.68-14.53-5.4,5.04-13.37,13.43-14.79,15.02-6.91.48-46.07,6.1-58.26,8.33,14.69-5.48,39.89-10.2,53.7-12.04,9.66-8.69,18.69-15.78,28.35-22.64-2.99,6.48-6.34,13.79-9.19,21.12Z"/>
  <g>
    <path class="cls-1" d="M49.88,27.4l-25.43,53.16c-4.66,0-7.37-1.12-5.54-5.06l23.05-48.08h-18.19L1.18,74.68c-4.72,9.84,5.38,12.37,18.13,12.37h20.24l28.55-59.64h-18.23v-.02Z"/>
    <path class="cls-1" d="M105.71,54.3l7.53-15.94c3.29-6.85,3.03-10.96-10.78-10.96h-28.25l-28.87,59.66h18.17l8.95-18.05h2.39c7.49-.08,24.49-1.65,30.87-14.71ZM94.83,38.82l-7.87,16.7c-1.89,3.73-6.02,6.93-11.32,6.93l13.63-28.47h3.43c4.16-.02,3.11,2.67,2.13,4.84Z"/>
    <g>
      <path class="cls-1" d="M79.67,123.18l-1.63,6.46h-3.87l4.94-19.55h10.3c4.38.1,5.74,1.43,4.62,5.86-.74,2.89-1.43,5-4.96,5.5v.1c2.67.24,2.97,1.67,2.27,4.42l-.92,3.65h-3.87l.92-3.65c.42-1.63,0-2.79-1.83-2.81h-5.98v.02ZM85.59,119.99c2.85,0,3.69-.54,4.4-3.41.7-2.77.32-3.25-2.45-3.25h-5.38l-1.69,6.68h5.12v-.02Z"/>
      <path class="cls-1" d="M121.62,110.11l-3.51,13.89c-1.37,5.44-4.98,5.82-9.88,5.82s-8.27-.34-6.89-5.82l3.51-13.89h3.87l-3.51,13.89c-.5,2.01.1,2.61,3.83,2.61s4.66-.5,5.2-2.61l3.51-13.89s3.89,0,3.89,0Z"/>
      <path class="cls-1" d="M146.18,110.11h3.87l-4.94,19.55h-6.42l-4.44-16.34h-.14l-3.81,16.34h-3.87l4.94-19.55h6.4l4.5,16.34h.1l3.81-16.34Z"/>
      <path class="cls-1" d="M174.64,110.11h3.87l-4.94,19.55h-6.42l-4.44-16.34h-.12l-3.81,16.34h-3.87l4.94-19.55h6.4l4.5,16.34h.1l3.79-16.34Z"/>
      <path class="cls-1" d="M187.23,129.66h-3.87l4.94-19.55h3.87l-4.94,19.55Z"/>
      <path class="cls-1" d="M216.76,110.11h3.87l-4.94,19.55h-6.42l-4.44-16.34h-.14l-3.81,16.34h-3.87l4.94-19.55h6.4l4.5,16.34h.1l3.81-16.34Z"/>
      <path class="cls-1" d="M244.78,119.28l-.9,3.55c-1.45,5.78-3.27,6.97-10.44,6.97-6.46,0-8.59-1.1-6.91-7.71l1.14-4.48c1.65-6.52,4.56-7.65,10.8-7.65,4.92,0,8.85-.24,7.13,6.04h-3.85c.72-2.87-.74-2.85-4.08-2.85-4.52,0-5.12.68-6.12,4.46l-1.14,4.48c-.98,4.08-.44,4.5,3.87,4.5,3.69,0,4.82-.08,5.76-3.79l.18-.7h-5.08l.72-2.85h8.93v.02Z"/>
    </g>
    <path class="cls-1" d="M311.95,74.68l2.85-5.86s-.18-.06-.26-.12l-1.81-1.24c-.44-.3-.74-.76-.9-1.26-.24-.12-.48-.24-.68-.44l-1.59-1.51c-.38-.36-.58-.82-.66-1.3-.18-.12-.36-.22-.5-.4l-1.35-1.71c-.4-.5-.58-1.14-.5-1.77s.4-1.22.9-1.61l7.93-6.28c1.04-.82,2.55-.64,3.37.4l.06.08,4.46-20.76c.16-.7.62-1.3,1.26-1.63s1.39-.36,2.05-.06l4.48,1.93c-.92-2.41-4.38-3.75-12.25-3.75h-28.24l-28.87,59.66h20.24c12.73,0,25.27-2.53,30.01-12.37ZM283.02,80.56l22.64-46.69h3.33c4.78,0,3.21,2.69,2.19,4.92l-17.73,36.68c-1.97,3.97-5.76,5.08-10.42,5.08h0Z"/>
  </g>
  <rect class="cls-2" x="368.17" y="31.52" width="2.19" height="9.39" transform="translate(-1.17 57.37) rotate(-8.87)"/>
  <rect class="cls-2" x="378.06" y="42.9" width="2.19" height="9.6" transform="translate(330.4 426.72) rotate(-89.84)"/>
  <rect class="cls-2" x="373.38" y="39.3" width="10.04" height="2.19" transform="translate(8.17 128.44) rotate(-19.47)"/>
  <rect class="cls-2" x="371.87" y="35.91" width="9.05" height="2.19" transform="translate(58.15 241.36) rotate(-38.32)"/>
  <rect class="cls-2" x="374.14" y="42.66" width="9.74" height="2.19" transform="translate(-2.02 63.29) rotate(-9.52)"/>
  <g>
    <rect class="cls-2" x="316.14" y="62.59" width="9.92" height="2.19" transform="translate(118.67 320.95) rotate(-63.02)"/>
    <rect class="cls-2" x="312.78" y="60.85" width="10.04" height="2.19" transform="translate(87.94 289.97) rotate(-55.8)"/>
    <rect class="cls-2" x="308.49" y="56" width="10.1" height="2.19" transform="translate(32.2 206.81) rotate(-38.34)"/>
    <rect class="cls-2" x="326.35" y="54.61" width="2.19" height="9.39" transform="translate(54.6 249.81) rotate(-45.19)"/>
    <rect class="cls-2" x="310.5" y="58.77" width="9.56" height="2.19" transform="translate(54.54 246.95) rotate(-46.41)"/>
  </g>
  <path class="cls-2" d="M357.2,117.8l-.8-.36,12.02-34.15-13.53-4.08,2.19-3.09-9.27-2.39,6.91-22.3,4.48,13.71,12.75-20.34-2.03-1.28-10.04,16-3.97-12.1,1.32-4.42-5.3-1.93-.36,1.08s-.04.14-.06.2l-1.61-.66,2.57-10.42c.48.06.96.12,1.45.12,5.86,0,10.6-4.74,10.6-10.6,0-4.34-2.61-8.05-6.34-9.7,0-.34.04-.68.04-1.02,0-1.04-.14-2.05-.38-3.25-.56-2.79-1.43-4.62-3.25-6.81l-1.69,1.37c1.65,2.05,2.25,3.29,2.79,5.88.24,1.12.34,1.95.34,2.79v.32c-.28-.06-.54-.1-.82-.12-.06-1.16-.28-2.25-.7-3.55-.74-2.31-1.61-3.79-3.27-5.54l-1.59,1.49c1.51,1.63,2.07,2.59,2.77,4.72.36,1.14.54,1.95.6,2.85-.38.04-.74.08-1.12.16-.46-.82-1.02-1.61-1.73-2.47-1.81-2.19-3.45-3.41-6.06-4.48l-.86,2.01c2.43,1.04,3.53,1.85,5.22,3.87.52.64.94,1.18,1.28,1.71-.64.28-1.24.6-1.81,1-.58-.94-1.28-1.75-2.19-2.63-1.71-1.69-3.21-2.59-5.48-3.37l-.72,2.07c2.11.74,3.05,1.32,4.66,2.87.96.94,1.53,1.61,2.03,2.51-.16.16-.32.34-.46.5-.74-.58-1.57-1.1-2.57-1.59-2.49-1.3-4.46-1.77-7.25-1.77h-.12l.08,2.19h.04c2.59.02,3.91.34,6.24,1.51.98.52,1.69.94,2.33,1.45-.2.38-.38.78-.54,1.2-.78-.48-1.59-.88-2.59-1.26-1.79-.7-3.23-1.02-4.96-1.02-.44,0-.92.02-1.39.06l.16,2.19c.46-.04.86-.04,1.24-.04,1.47,0,2.51.22,4.16.86,1.22.48,1.99.88,2.79,1.45-.08.52-.14,1.04-.14,1.57,0,4.6,2.93,8.51,7.03,9.98l-2.49,10.08-2.63-1.08c.06-.74.12-1.49.2-2.27l.12-1.12-1.12-.1-4.7-.4-.16,1.53v.06l-13.99-6.06-4.84,22.5,2.35.5,4.22-19.63,12.02,5.2v.2l-.12,1.08-2.97,29.93-8.83,9.78,3.79,2.27-4.7,12.47-33.3,8.63.2.78.08.4,3.47,17.69,2.15-.42-3.19-16.98,32.4-8.07,4.98-13.25,2.63,1.57,5.52-5.62,9.98,3.59,1.97-2.77,11.9,3.59-11.98,33.63.36.12h0l18.39,8.31.86-1.89-15.68-7.23h0ZM349.39,43.84l1.43.6c-.26.74-.58,1.49-.92,2.15-.56,1.1-1.18,1.79-1.69,2.05l1.18-4.8h0ZM345.12,42.5v-.42l2.21.92-1.18,4.76c-.68-1.02-1.06-2.85-1.04-5.26Z"/>
  <polygon class="cls-3" points="349.37 56.59 346.52 56.03 347.12 52.86 345.16 52.48 344.55 55.65 341.48 55.06 341.1 57.03 344.17 57.63 342.33 67.23 344.31 67.61 346.14 58 348.99 58.54 349.37 56.59"/>
  <path class="cls-4" d="M362.46,20.72c0,4.66-3.77,8.43-8.43,8.43s-8.43-3.77-8.43-8.43,3.77-8.43,8.43-8.43,8.43,3.77,8.43,8.43Z"/>
  <g>
    <path class="cls-6" d="M344.37,37.76c-.6,5.54-.62,10.7,2.35,11.92,3.29,1.34,4.92-4.3,5.8-6.93l3.27,1.18-9.25,29.47-9.13-2.35,3.37-33.58,3.59.3h0Z"/>
    <path class="cls-2" d="M347.08,74.34l-10.52-2.71,3.53-35.03,5.16.42-.08.82c-.5,4.6-.74,10.04,1.85,11.1.46.2.88.2,1.26,0,1.57-.72,2.65-3.99,3.31-5.94l.44-1.3,4.76,1.71-9.7,30.93h0ZM338.29,70.42l7.73,1.99,8.79-28.02-1.77-.64c-.78,2.33-1.95,5.66-4.06,6.64-.8.38-1.65.38-2.53.02-3.37-1.37-3.43-6.7-2.93-11.94l-1.97-.16-3.25,32.1Z"/>
  </g>
  <polygon class="cls-5" points="337.83 72.07 330.04 80.38 336 83.67 340.76 78.35 350.6 82.07 354.47 76.71 346.42 74.76 337.83 72.07"/>
  <polygon class="cls-3" points="349.37 56.67 346.68 56.15 347.24 53.16 345.38 52.8 344.83 55.79 341.92 55.23 341.56 57.09 344.47 57.65 342.73 66.69 344.59 67.03 346.32 58 349.01 58.52 349.37 56.67"/>
  <path class="cls-4" d="M356.96,117.92l16.44,7.35,1.16-3.15s-2.41-4.46-7.39-6.5c-4.98-2.03-8.75.1-8.75.1,0,0-1.45,2.19-1.45,2.19Z"/>
  <path class="cls-2" d="M367.26,114.89c-2.95-1.1-5.34-1.2-8.37-.38l.58,2.15c2.79-.7,4.32-.64,7.03.32.98.34,1.81.74,2.55,1.2,2.09,1.28,3.41,2.95,4.46,5.68l2.09-.8c-1.16-3.05-2.87-5.28-5.4-6.79-.88-.52-1.85-.98-2.95-1.37Z"/>
  <polygon class="cls-2" points="372.74 129.44 369.93 130.65 368.74 127.31 365.09 128.86 363.85 124.46 360.87 126.29 360.47 122.5 356.58 123.66 356.5 121.79 354.27 121.89 354.47 126.65 358.51 125.41 358.99 130.06 362.5 127.92 363.62 131.91 367.42 130.3 368.62 133.66 373.64 131.47 372.74 129.44"/>
  <path class="cls-4" d="M296.09,106.78l3.13,17.73,3.25-.8s2.35-4.5,1.26-9.76c-1.1-5.26-4.98-7.19-4.98-7.19h-2.65v.02Z"/>
  <path class="cls-2" d="M304.36,113.64c-.74-3.05-1.99-5.08-4.36-7.15l-1.47,1.67c2.15,1.91,2.95,3.23,3.67,6.02.26,1,.4,1.91.44,2.77.12,2.43-.54,4.46-2.21,6.87l1.83,1.28c1.87-2.67,2.77-5.32,2.61-8.27-.04-1-.2-2.07-.5-3.19h0Z"/>
  <polygon class="cls-2" points="295.39 126.31 292.8 124.68 294.91 121.79 291.58 119.66 294.53 116.17 291.32 114.71 294.25 112.26 291.13 109.69 292.64 108.58 291.3 106.78 287.48 109.61 290.77 112.28 287.18 115.29 290.91 116.99 288.24 120.15 291.7 122.39 289.57 125.27 294.19 128.2 295.39 126.31"/>
</svg>