<?xml version="1.0" encoding="utf-8"?>
<!-- Generator: Adobe Illustrator 28.1.0, SVG Export Plug-In . SVG Version: 6.00 Build 0)  -->
<svg version="1.1" id="Layer_1" xmlns="http://www.w3.org/2000/svg" xmlns:xlink="http://www.w3.org/1999/xlink" x="0px" y="0px"
	 viewBox="0 0 144 144" style="enable-background:new 0 0 144 144;" xml:space="preserve">
<style type="text/css">
	.st0{fill:#0468B1;}
	.st1{fill:#0095D5;}
	.st2{fill:url(#SVGID_1_);}
	.st3{fill-rule:evenodd;clip-rule:evenodd;fill:#FFFFFF;}
	.st4{fill:#FFFFFF;}
</style>
<path class="st0" d="M112.69,43.91L77.2,23.42c-1.13-0.65-2.4-0.98-3.66-0.98c-1.27,0-2.53,0.33-3.66,0.98L34.38,43.91
	c-2.27,1.31-3.66,3.73-3.66,6.34v40.98c0,2.62,1.4,5.04,3.66,6.34l35.49,20.49c1.13,0.65,2.4,0.98,3.66,0.98
	c1.27,0,2.53-0.33,3.66-0.98l35.49-20.49c2.27-1.31,3.66-3.73,3.66-6.34V50.25C116.35,47.64,114.96,45.22,112.69,43.91z
	 M112.22,59.52H34.85v-9.26c0-1.14,0.61-2.19,1.59-2.76L71.94,27c0.48-0.28,1.04-0.43,1.59-0.43s1.11,0.15,1.59,0.43l35.49,20.49
	c0.98,0.57,1.59,1.63,1.59,2.76V59.52z"/>
<path class="st1" d="M73.53,83.19v35.86c-1.27,0-2.53-0.33-3.66-0.98L34.38,97.58c-2.27-1.31-3.66-3.73-3.66-6.34v-3.15
	c-2.7,0-4.89-2.19-4.89-4.89H73.53z"/>
<radialGradient id="SVGID_1_" cx="73.6232" cy="15062.7012" r="39.4055" gradientTransform="matrix(1.1652 0 0 0.1097 -12.2516 -1569.1847)" gradientUnits="userSpaceOnUse">
	<stop  offset="0" style="stop-color:#004880"/>
	<stop  offset="0.0122" style="stop-color:#054B82"/>
	<stop  offset="0.2205" style="stop-color:#4F81A8"/>
	<stop  offset="0.4158" style="stop-color:#8EAEC7"/>
	<stop  offset="0.5922" style="stop-color:#BFD1DF"/>
	<stop  offset="0.7464" style="stop-color:#E2EAF0"/>
	<stop  offset="0.8723" style="stop-color:#F7F9FB"/>
	<stop  offset="0.9544" style="stop-color:#FFFFFF"/>
</radialGradient>
<ellipse class="st2" cx="73.53" cy="83.19" rx="46.58" ry="4.79"/>
<path class="st1" d="M121.25,62.52v20.67H25.82V62.52c0-1.66,1.35-3.01,3.01-3.01h89.41C119.9,59.52,121.25,60.86,121.25,62.52z"/>
<path class="st1" d="M34.85,50.25v9.26h38.68v23.68H25.82V62.52c0-1.66,1.35-3.01,3.01-3.01h1.89v-9.26c0-2.62,1.4-5.04,3.66-6.34
	l35.49-20.49c1.13-0.65,2.4-0.98,3.66-0.98v4.14c-0.56,0-1.11,0.15-1.59,0.43L36.45,47.49C35.46,48.06,34.85,49.12,34.85,50.25z"/>
<g>
	<polygon class="st3" points="67.3,100.2 72.29,101.4 79.77,97.46 74.7,102.99 72.29,105.33 69.95,102.92 	"/>
</g>
<path class="st4" d="M112.22,86.75v3.14v0.78c0,0.26,0,0.52-0.04,0.78c-0.08,0.52-0.28,1.02-0.6,1.43c-0.16,0.21-0.34,0.4-0.54,0.56
	c-0.2,0.17-0.43,0.3-0.66,0.43l-1.36,0.78l-2.72,1.57l-10.87,6.28l-10.87,6.28l-5.44,3.14l-2.72,1.57l-1.36,0.78
	c-0.46,0.25-0.98,0.38-1.51,0.38c-0.52,0-1.05-0.13-1.51-0.38l-1.36-0.78l-2.72-1.57l-5.44-3.14l-10.87-6.28l-10.87-6.28l-2.72-1.57
	l-1.36-0.78c-0.23-0.13-0.45-0.26-0.66-0.43c-0.2-0.17-0.39-0.36-0.54-0.56c-0.31-0.42-0.52-0.92-0.6-1.43
	c-0.04-0.26-0.04-0.52-0.04-0.78v-0.78v-3.14l0.06,0.78l0.05,0.78l0.1,1.57l0.04,0.78l0.01,0.2l0.01,0.1c0,0.03,0.01,0.06,0.01,0.09
	c0.01,0.06,0.01,0.12,0.02,0.18c0.01,0.06,0.02,0.12,0.03,0.18c0.1,0.46,0.31,0.9,0.61,1.25c0.15,0.18,0.32,0.33,0.5,0.46
	c0.02,0.02,0.05,0.03,0.07,0.05l0.07,0.04l0.07,0.05l0.07,0.04l0.07,0.04c0.02,0.01,0.06,0.03,0.08,0.04l0.17,0.09l1.4,0.72
	l2.79,1.45c3.71,1.94,7.4,3.92,11.08,5.92l2.76,1.51l2.75,1.52c1.83,1.01,3.66,2.04,5.48,3.06c0.91,0.51,1.82,1.03,2.73,1.54
	l2.73,1.55l2.72,1.56l1.32,0.76c0.26,0.14,0.55,0.21,0.84,0.21c0.29,0,0.59-0.07,0.85-0.21l1.32-0.76l2.72-1.56l2.73-1.55
	c0.91-0.52,1.82-1.03,2.73-1.54c1.83-1.02,3.65-2.05,5.48-3.06l2.75-1.52l2.76-1.51c3.68-2,7.37-3.98,11.08-5.92l2.79-1.45l1.4-0.72
	l0.17-0.09c0.03-0.01,0.06-0.03,0.08-0.04l0.07-0.04l0.07-0.04l0.07-0.05l0.07-0.04c0.02-0.02,0.05-0.03,0.07-0.05
	c0.18-0.13,0.35-0.29,0.5-0.46c0.3-0.35,0.51-0.78,0.61-1.25c0.02-0.06,0.02-0.12,0.03-0.18c0.01-0.06,0.01-0.12,0.02-0.18
	c0-0.03,0.01-0.06,0.01-0.09l0.01-0.1l0.01-0.2l0.04-0.78l0.1-1.57l0.05-0.78L112.22,86.75z"/>
<path class="st0" d="M30.72,83.19v4.89c-2.7,0-4.89-2.19-4.89-4.89H30.72z"/>
<path class="st0" d="M116.35,88.09L116.35,88.09c2.7,0,4.89-2.19,4.89-4.89v0h-4.89V88.09z"/>
<g>
	<path class="st4" d="M59.71,90.18c0.25,0,0.41-0.03,0.51-0.09s0.14-0.2,0.14-0.41v-0.74c0-0.12-0.04-0.21-0.11-0.29
		c-0.07-0.07-0.17-0.11-0.29-0.11c-0.14,0-0.25,0.05-0.31,0.14c-0.06,0.09-0.09,0.18-0.09,0.26v0.46h-0.82v-0.47
		c0-0.17,0.03-0.32,0.1-0.47s0.15-0.28,0.26-0.38c0.11-0.11,0.24-0.19,0.39-0.26c0.15-0.06,0.31-0.1,0.48-0.1
		c0.22,0,0.41,0.04,0.56,0.13c0.15,0.09,0.26,0.18,0.33,0.27c0.05,0.06,0.1,0.13,0.14,0.19c0.04,0.06,0.07,0.14,0.1,0.23
		c0.05,0.18,0.07,0.44,0.07,0.78c0,0.2,0,0.36-0.01,0.48c-0.01,0.12-0.03,0.22-0.06,0.3c-0.04,0.09-0.09,0.16-0.16,0.22
		c-0.07,0.06-0.16,0.12-0.28,0.19c0.13,0.08,0.23,0.16,0.29,0.22c0.07,0.07,0.12,0.15,0.15,0.24c0.03,0.1,0.05,0.21,0.06,0.34
		c0.01,0.13,0.01,0.3,0.01,0.5c0,0.19,0,0.34-0.01,0.46c-0.01,0.12-0.02,0.22-0.04,0.3c-0.02,0.08-0.04,0.16-0.06,0.22
		c-0.03,0.06-0.06,0.12-0.1,0.18c-0.1,0.15-0.23,0.27-0.39,0.37c-0.16,0.1-0.36,0.15-0.62,0.15c-0.13,0-0.26-0.02-0.41-0.06
		c-0.14-0.04-0.27-0.11-0.39-0.21c-0.12-0.1-0.21-0.22-0.29-0.38c-0.08-0.15-0.12-0.34-0.12-0.57v-0.46h0.82v0.42
		c0,0.13,0.04,0.23,0.11,0.32c0.07,0.08,0.17,0.12,0.29,0.12c0.12,0,0.22-0.04,0.29-0.12c0.07-0.08,0.11-0.19,0.11-0.33v-0.82
		c0-0.22-0.04-0.37-0.13-0.44c-0.05-0.04-0.11-0.07-0.2-0.08s-0.19-0.02-0.32-0.02V90.18z"/>
	<path class="st4" d="M62.59,93.47v-0.82h0.82v0.82H62.59z"/>
	<path class="st4" d="M65.78,93.47v-4.83l-0.82,0.6v-0.86l0.82-0.6h0.82v5.7H65.78z"/>
	<path class="st4" d="M70.99,93.47v-5.7h0.78l1.05,3.02h0.02l1.04-3.02h0.79v5.7h-0.82v-3.46h-0.02l-0.81,2.45h-0.41l-0.8-2.45H71.8
		v3.46H70.99z"/>
	<path class="st4" d="M76.26,93.47v-5.7h0.82v5.7H76.26z"/>
	<path class="st4" d="M78.66,93.47v-5.7h0.82v4.88h1.62v0.82H78.66z"/>
	<path class="st4" d="M82.42,93.47v-5.7h2.43v0.77h-1.62v1.67h1.41v0.77h-1.41v1.67h1.62v0.82H82.42z"/>
	<path class="st4" d="M88.83,89.42h-0.82v-0.18c0-0.19-0.04-0.35-0.13-0.48c-0.09-0.14-0.24-0.2-0.44-0.2
		c-0.11,0-0.2,0.02-0.27,0.06s-0.13,0.1-0.17,0.16c-0.04,0.07-0.07,0.15-0.09,0.24c-0.02,0.09-0.02,0.18-0.02,0.28
		c0,0.11,0,0.21,0.01,0.28c0.01,0.07,0.03,0.14,0.06,0.2c0.03,0.06,0.08,0.11,0.14,0.15c0.06,0.04,0.15,0.09,0.25,0.13l0.62,0.25
		c0.18,0.07,0.33,0.15,0.44,0.24c0.11,0.09,0.2,0.2,0.26,0.32c0.06,0.13,0.1,0.27,0.12,0.44c0.02,0.16,0.03,0.35,0.03,0.56
		c0,0.24-0.02,0.46-0.07,0.67s-0.13,0.38-0.23,0.52c-0.11,0.15-0.26,0.27-0.44,0.35c-0.18,0.08-0.4,0.13-0.66,0.13
		c-0.2,0-0.38-0.04-0.55-0.1c-0.17-0.07-0.32-0.17-0.44-0.29c-0.12-0.12-0.22-0.26-0.29-0.43c-0.07-0.16-0.11-0.34-0.11-0.53v-0.3
		h0.82v0.26c0,0.15,0.04,0.28,0.13,0.4s0.24,0.18,0.44,0.18c0.14,0,0.25-0.02,0.32-0.06c0.08-0.04,0.14-0.1,0.18-0.17
		c0.04-0.08,0.07-0.16,0.08-0.27c0.01-0.1,0.01-0.22,0.01-0.35c0-0.15-0.01-0.27-0.02-0.37c-0.01-0.1-0.03-0.17-0.06-0.23
		c-0.04-0.06-0.09-0.11-0.15-0.14c-0.06-0.04-0.14-0.08-0.24-0.12l-0.58-0.24c-0.35-0.14-0.59-0.33-0.71-0.57s-0.18-0.54-0.18-0.89
		c0-0.21,0.03-0.42,0.09-0.61c0.06-0.19,0.15-0.36,0.26-0.5c0.11-0.14,0.25-0.25,0.43-0.33s0.38-0.12,0.62-0.12
		c0.2,0,0.39,0.04,0.56,0.11c0.17,0.07,0.31,0.17,0.44,0.3c0.25,0.26,0.37,0.55,0.37,0.88V89.42z"/>
</g>
<g>
	<path d="M73.91,38.81l0.28,0.16c-0.46,1.3-1.04,2.3-1.74,2.98c-0.7,0.68-1.49,1.02-2.38,1.02c-0.49,0-1.04-0.08-1.64-0.23
		c-0.61-0.15-1.2-0.3-1.79-0.44c-0.59-0.14-1.14-0.18-1.64-0.14l-1.84,5.34c0.74-0.74,1.53-1.27,2.38-1.6
		c0.85-0.33,1.77-0.49,2.75-0.49c1.39,0,2.45,0.3,3.15,0.89s1.06,1.41,1.06,2.47c0,0.84-0.2,1.68-0.6,2.52
		c-0.4,0.84-0.95,1.6-1.67,2.29s-1.54,1.24-2.5,1.66c-0.95,0.41-1.98,0.62-3.08,0.62c-0.66,0-1.24-0.08-1.74-0.25
		s-0.95-0.41-1.35-0.71c-0.32-0.28-0.59-0.59-0.81-0.94c-0.21-0.35-0.32-0.74-0.32-1.17c0-0.37,0.09-0.74,0.28-1.12
		c0.18-0.38,0.46-0.69,0.82-0.94s0.8-0.38,1.32-0.38c0.52,0,0.94,0.14,1.26,0.43c0.32,0.28,0.48,0.69,0.48,1.23
		c0,0.43-0.1,0.84-0.3,1.23s-0.47,0.72-0.8,0.99c-0.34,0.27-0.71,0.45-1.13,0.54c0.15,0.15,0.44,0.31,0.85,0.47s0.85,0.24,1.31,0.24
		c0.69,0,1.29-0.2,1.81-0.6c0.51-0.4,0.94-0.92,1.28-1.55c0.34-0.64,0.59-1.32,0.76-2.05c0.17-0.73,0.25-1.41,0.25-2.06
		c0-0.72-0.1-1.28-0.3-1.69c-0.2-0.41-0.47-0.69-0.82-0.85c-0.34-0.16-0.73-0.24-1.16-0.24c-0.35,0-0.71,0.06-1.06,0.17
		c-0.35,0.12-0.72,0.3-1.12,0.55c-0.39,0.25-0.85,0.61-1.37,1.07h-0.41l3.1-8.95c0.66-0.03,1.3,0,1.91,0.1
		c0.61,0.1,1.24,0.2,1.89,0.31c0.64,0.11,1.33,0.16,2.07,0.16c0.6,0,1.1-0.07,1.49-0.21C73.25,39.5,73.61,39.22,73.91,38.81z"/>
	<path d="M76.67,55.53h-3.66l4.55-15.34c0.15-0.52,0.14-0.9-0.05-1.15c-0.18-0.25-0.65-0.37-1.4-0.37l0.16-0.48
		c1.17-0.02,2.2-0.1,3.12-0.26s1.79-0.39,2.63-0.68L76.67,55.53z M83,53.67c-0.08,0.38-0.08,0.64-0.02,0.77s0.17,0.2,0.32,0.2
		c0.18,0,0.39-0.1,0.61-0.3s0.46-0.64,0.72-1.33l0.44-1.2h0.44l-0.58,1.68c-0.23,0.64-0.53,1.13-0.91,1.47
		c-0.38,0.34-0.79,0.57-1.24,0.7c-0.45,0.13-0.9,0.2-1.35,0.2c-0.84,0-1.43-0.24-1.76-0.72c-0.33-0.48-0.4-1.18-0.22-2.08l0.41-1.7
		c0.2-0.81,0.17-1.39-0.09-1.74c-0.26-0.35-0.82-0.56-1.68-0.66v-0.09c0.71-0.05,1.4-0.04,2.08,0.01c0.68,0.05,1.29,0.19,1.82,0.41
		c0.53,0.22,0.92,0.56,1.17,1.02s0.29,1.07,0.13,1.84L83,53.67z M83.76,43.73c-0.21,0-0.4,0.03-0.56,0.09
		c-0.16,0.06-0.32,0.15-0.47,0.28c-0.26,0.21-0.47,0.52-0.63,0.92c-0.16,0.4-0.32,0.82-0.48,1.28s-0.36,0.88-0.61,1.28
		c-0.25,0.4-0.58,0.73-0.99,0.99c-0.41,0.26-0.96,0.38-1.63,0.37l-0.23,0.02l0.05-0.25c0.66-0.05,1.18-0.2,1.56-0.47
		c0.38-0.27,0.69-0.6,0.92-0.99c0.23-0.39,0.42-0.8,0.56-1.23s0.3-0.84,0.46-1.23s0.39-0.71,0.68-0.95c0.25-0.2,0.5-0.34,0.77-0.41
		c0.27-0.08,0.5-0.11,0.7-0.11c0.81,0,1.42,0.23,1.81,0.7c0.39,0.47,0.58,1.02,0.56,1.67c0,0.43-0.09,0.81-0.28,1.14
		c-0.18,0.33-0.44,0.58-0.76,0.76c-0.32,0.18-0.68,0.26-1.08,0.26c-0.55,0-0.97-0.15-1.25-0.45c-0.28-0.3-0.43-0.64-0.43-1.02
		c0.02-0.55,0.2-1.03,0.56-1.44s0.77-0.72,1.23-0.93c-0.05-0.08-0.12-0.14-0.21-0.18S83.83,43.73,83.76,43.73z"/>
</g>
<g>
	<path class="st4" d="M36.43,79.16V64.92h2.98c0.65,0,1.21,0.1,1.67,0.3c0.46,0.2,0.84,0.47,1.13,0.8c0.29,0.33,0.5,0.72,0.63,1.15
		c0.13,0.43,0.19,0.88,0.19,1.35v0.52c0,0.39-0.03,0.71-0.09,0.98c-0.06,0.27-0.15,0.5-0.27,0.7c-0.23,0.37-0.57,0.69-1.04,0.96
		c0.48,0.23,0.83,0.56,1.06,1c0.23,0.44,0.34,1.04,0.34,1.8v0.8c0,1.25-0.3,2.21-0.91,2.88c-0.61,0.67-1.58,1-2.91,1H36.43z
		 M38.47,66.84v3.92h0.92c0.68,0,1.14-0.17,1.37-0.51c0.23-0.34,0.35-0.84,0.35-1.49c0-0.64-0.13-1.12-0.39-1.44
		s-0.73-0.48-1.41-0.48H38.47z M38.47,72.56v4.56h0.88c0.41,0,0.74-0.06,0.97-0.18c0.23-0.12,0.41-0.29,0.53-0.5
		c0.12-0.21,0.19-0.47,0.22-0.76c0.03-0.29,0.04-0.61,0.04-0.96c0-0.36-0.02-0.67-0.06-0.94s-0.12-0.49-0.24-0.68
		c-0.13-0.19-0.31-0.32-0.54-0.41s-0.53-0.13-0.9-0.13H38.47z"/>
	<path class="st4" d="M46.95,79.16V64.92h6.08v1.92h-4.04v4.18h3.52v1.92h-3.52v4.18h4.04v2.04H46.95z"/>
	<path class="st4" d="M56.23,68.28c0-0.57,0.1-1.08,0.3-1.52c0.2-0.44,0.47-0.81,0.8-1.1c0.32-0.28,0.68-0.49,1.09-0.64
		c0.41-0.15,0.82-0.22,1.23-0.22c0.41,0,0.82,0.07,1.23,0.22c0.41,0.15,0.78,0.36,1.11,0.64c0.32,0.29,0.58,0.66,0.78,1.1
		c0.2,0.44,0.3,0.95,0.3,1.52V69h-2.04v-0.72c0-0.49-0.14-0.86-0.41-1.09c-0.27-0.23-0.6-0.35-0.97-0.35c-0.37,0-0.7,0.12-0.97,0.35
		c-0.27,0.23-0.41,0.6-0.41,1.09v7.52c0,0.49,0.14,0.86,0.41,1.09c0.27,0.23,0.6,0.35,0.97,0.35c0.37,0,0.7-0.12,0.97-0.35
		c0.27-0.23,0.41-0.6,0.41-1.09v-2.68h-1.62v-1.8h3.66v4.48c0,0.6-0.1,1.11-0.3,1.54c-0.2,0.43-0.46,0.78-0.78,1.06
		c-0.33,0.29-0.7,0.51-1.11,0.66c-0.41,0.15-0.82,0.22-1.23,0.22c-0.41,0-0.82-0.07-1.23-0.22s-0.77-0.37-1.09-0.66
		c-0.33-0.28-0.6-0.63-0.8-1.06c-0.2-0.43-0.3-0.94-0.3-1.54V68.28z"/>
	<path class="st4" d="M66.93,79.16V64.92h2.04v14.24H66.93z"/>
	<path class="st4" d="M72.87,79.16V64.92h1.96l3.08,8.58h0.04v-8.58h2.04v14.24h-1.92l-3.12-8.56h-0.04v8.56H72.87z"/>
	<path class="st4" d="M83.75,79.16V64.92h1.96l3.08,8.58h0.04v-8.58h2.04v14.24h-1.92l-3.12-8.56h-0.04v8.56H83.75z"/>
	<path class="st4" d="M94.71,79.16V64.92h6.08v1.92h-4.04v4.18h3.52v1.92h-3.52v4.18h4.04v2.04H94.71z"/>
	<path class="st4" d="M104.11,79.16V64.92h3.28c2.4,0,3.6,1.39,3.6,4.18c0,0.84-0.13,1.55-0.39,2.14c-0.26,0.59-0.72,1.06-1.37,1.42
		l2.2,6.5h-2.16l-1.9-6.08h-1.22v6.08H104.11z M106.15,66.84v4.44h1.16c0.36,0,0.65-0.05,0.86-0.15c0.21-0.1,0.38-0.24,0.5-0.43
		c0.11-0.19,0.18-0.42,0.22-0.69s0.06-0.59,0.06-0.95c0-0.36-0.02-0.68-0.06-0.95s-0.12-0.51-0.24-0.71
		c-0.25-0.37-0.73-0.56-1.44-0.56H106.15z"/>
</g>
</svg>